# xmcd
#
# Track frame offsets: 
#        150
#        13967
#        36102
#        53147
#        72230
#        75540
#        101097
#        125810
#        140202
#        155560
#        175992
#        199215
#        216277
#        233827
#        250155
#        280270
#        306740
#
# Disc length: 4243 seconds
#
# Revision: 5
# Processed by: cddbd v1.5.2PL0 Copyright (c) Steve Scherf et al.
# Submitted via: ExactAudioCopy v1.3
#
DISCID=0a109111
DTITLE=Green, Al - Anthology (3)
DYEAR=1997
DGENRE=Soul
TTITLE0=Call Me (Come Back Home)
TTITLE1=You Ought To Be With Me (Live)
TTITLE2=Have You Been Making Out O.K.
TTITLE3=Here I Am (Come And Take Me)
TTITLE4=Interview:  "I Took What I Learned From Rock And Roll"
TTITLE5=Jesus Is Waiting
TTITLE6=Free At Last LIVE
TTITLE7=Livin' For You
TTITLE8=Mimi
TTITLE9=I Think It's For The Feeling
TTITLE10=Sha-La-La (Make Me Happy) LIVE
TTITLE11=Take Me To The River
TTITLE12=L-O-V-E (Love) LIVE
TTITLE13=Rhymes
TTITLE14=The Love Sermon
TTITLE15=God Blessed Our Love LIVE
TTITLE16=Interviews:  "That's My Dog Roma" - "How I Sing The Way I Sin
TTITLE16=g"
EXTD=
EXTT0=
EXTT1=
EXTT2=
EXTT3=
EXTT4=
EXTT5=
EXTT6=
EXTT7=
EXTT8=
EXTT9=
EXTT10=
EXTT11=
EXTT12=
EXTT13=
EXTT14=
EXTT15=
EXTT16=
PLAYORDER=
